# Exported from Wings 3D 2.2.5
mtllib turn45.mtl
o straight
#20 vertices, 19 faces
v -9.00000000 -1.2855454e-2 -1.00000000
v -9.00000000 -1.2855454e-2 1.00000000
v -9.00000000 1.2855454e-2 -1.00000000
v -9.00000000 1.2855454e-2 1.00000000
v -7.00000000 -1.2855454e-2 -1.00000000
v -7.00000000 -1.2855454e-2 1.00000000
v -7.00000000 1.2855454e-2 -1.00000000
v -7.00000000 1.2855454e-2 1.00000000
v -9.00000000 -1.2855454e-2 1.00000000
v -9.00000000 1.2855454e-2 1.00000000
v -9.00000000 1.2855454e-2 -1.00000000
v -9.00000000 -1.2855454e-2 -1.00000000
v -7.00000000 -1.2855454e-2 1.00000000
v -7.00000000 1.2855454e-2 1.00000000
v -9.00000000 1.2855454e-2 3.00000000
v -9.00000000 -1.2855454e-2 3.00000000
v -7.00000000 1.2855454e-2 1.00000000
v -9.00000000 1.2855454e-2 1.00000000
v -11.00000000 -1.2855454e-2 1.00000000
v -11.00000000 1.2855454e-2 1.00000000
vn 0.0000000e+0 -1.00000000 0.0000000e+0
vn 0.0000000e+0 0.0000000e+0 -1.00000000
vn 0.0000000e+0 0.0000000e+0 0.0000000e+0
vn 0.0000000e+0 0.0000000e+0 0.0000000e+0
vn 0.0000000e+0 -1.00000000 0.0000000e+0
vn 0.0000000e+0 0.0000000e+0 0.0000000e+0
vn 0.0000000e+0 0.0000000e+0 0.0000000e+0
vn 0.0000000e+0 1.00000000 0.0000000e+0
vn 0.0000000e+0 0.0000000e+0 -1.00000000
vn 0.0000000e+0 0.0000000e+0 0.0000000e+0
vn 0.0000000e+0 0.0000000e+0 0.0000000e+0
vn 0.0000000e+0 1.00000000 0.0000000e+0
vn 0.0000000e+0 0.0000000e+0 0.0000000e+0
vn 0.0000000e+0 0.0000000e+0 0.0000000e+0
vn 0.0000000e+0 0.0000000e+0 0.0000000e+0
vn 0.0000000e+0 -1.00000000 0.0000000e+0
vn 0.0000000e+0 0.0000000e+0 -1.00000000
vn 1.00000000 0.0000000e+0 0.0000000e+0
vn 0.0000000e+0 -1.00000000 0.0000000e+0
vn 1.00000000 0.0000000e+0 0.0000000e+0
vn 0.0000000e+0 0.0000000e+0 0.0000000e+0
vn 0.0000000e+0 0.0000000e+0 0.0000000e+0
vn 0.0000000e+0 1.00000000 0.0000000e+0
vn 0.0000000e+0 0.0000000e+0 -1.00000000
vn 1.00000000 0.0000000e+0 0.0000000e+0
vn 0.0000000e+0 1.00000000 0.0000000e+0
vn 1.00000000 0.0000000e+0 0.0000000e+0
vn 0.0000000e+0 0.0000000e+0 0.0000000e+0
vn 0.0000000e+0 0.0000000e+0 0.0000000e+0
vn 0.70710678 0.0000000e+0 0.70710678
vn 0.0000000e+0 0.0000000e+0 0.0000000e+0
vn 0.0000000e+0 0.0000000e+0 0.0000000e+0
vn -1.00000000 0.0000000e+0 0.0000000e+0
vn 0.0000000e+0 0.0000000e+0 1.00000000
vn 0.0000000e+0 -1.00000000 0.0000000e+0
vn 0.0000000e+0 -1.00000000 0.0000000e+0
vn 0.0000000e+0 0.0000000e+0 0.0000000e+0
vn -1.00000000 0.0000000e+0 0.0000000e+0
vn 0.0000000e+0 0.0000000e+0 0.0000000e+0
vn 0.0000000e+0 0.0000000e+0 1.00000000
vn 0.0000000e+0 1.00000000 0.0000000e+0
vn 0.0000000e+0 0.0000000e+0 0.0000000e+0
vn 0.0000000e+0 0.0000000e+0 0.0000000e+0
vn 0.0000000e+0 1.00000000 0.0000000e+0
vn -0.70710678 0.0000000e+0 -0.70710678
vn 0.0000000e+0 0.0000000e+0 0.0000000e+0
vn 0.0000000e+0 0.0000000e+0 0.0000000e+0
vn 0.0000000e+0 -1.00000000 0.0000000e+0
vn -0.70710678 0.0000000e+0 -0.70710678
vn 0.0000000e+0 0.0000000e+0 0.0000000e+0
vn 0.0000000e+0 0.0000000e+0 0.0000000e+0
vn 0.0000000e+0 -1.00000000 0.0000000e+0
vn 0.70710678 0.0000000e+0 0.70710678
vn 0.0000000e+0 0.0000000e+0 0.0000000e+0
vn 0.70710678 0.0000000e+0 0.70710678
vn -1.00000000 0.0000000e+0 0.0000000e+0
vn 0.0000000e+0 0.0000000e+0 0.0000000e+0
vn 0.0000000e+0 1.00000000 0.0000000e+0
vn 0.70710678 0.0000000e+0 0.70710678
vn -1.00000000 0.0000000e+0 0.0000000e+0
vn 0.0000000e+0 -1.00000000 0.0000000e+0
vn 0.70710678 0.0000000e+0 0.70710678
vn 0.0000000e+0 0.0000000e+0 0.0000000e+0
vn 0.0000000e+0 1.00000000 0.0000000e+0
vn 0.70710678 0.0000000e+0 0.70710678
vn 0.0000000e+0 0.0000000e+0 0.0000000e+0
vn 0.0000000e+0 0.0000000e+0 0.0000000e+0
vn 0.0000000e+0 1.00000000 0.0000000e+0
vn 0.0000000e+0 0.0000000e+0 1.00000000
vn 0.0000000e+0 -1.00000000 0.0000000e+0
vn -0.70710678 0.0000000e+0 -0.70710678
vn 0.0000000e+0 0.0000000e+0 1.00000000
vn 0.0000000e+0 1.00000000 0.0000000e+0
vn -0.70710678 0.0000000e+0 -0.70710678
g straight_default
usemtl default
s 1
f 1//1 5//16 6//19 2//5
f 1//3 12//46 11//43 3//11
f 4//12 8//26 7//23 3//8
f 8//28 14//54 13//51 6//22
f 10//40 20//72 19//69 9//34
f 13//52 16//61 9//36
f 18//68 15//58 17//64
s 2
f 2//6 9//31 12//47 1//4
f 3//9 7//24 5//17 1//2
f 3//10 11//42 10//37 4//13
f 8//30 17//65 15//59 16//62 13//53 14//55
f 12//49 19//71 20//74 11//45
s 3
f 2//7 6//21 13//50 9//32
f 4//14 18//66 17//63 8//29
f 5//18 7//25 8//27 6//20
f 9//33 16//60 15//56 10//38
f 9//35 19//70 12//48
f 11//44 20//73 10//41
s 4
f 10//39 15//57 18//67 4//15
