# Exported from Wings 3D 2.2.5
mtllib ambulance.mtl
o Cube1
#18 vertices, 15 faces
v -1.00000000 -0.37920000 -1.00000000
v -1.00000000 -0.37920000 1.00000000
v -1.00000000 0.37920000 -1.00000000
v -1.00000000 1.50379776 1.00000000
v 1.00000000 -0.37920000 -1.00000000
v 1.00000000 -0.37920000 1.00000000
v 1.00000000 0.37920000 -1.00000000
v 1.00000000 1.50379776 1.00000000
v -1.35072000 2.05600000 1.00000000
v -1.35072000 -0.37920000 1.00000000
v 1.35072000 -0.37920000 1.00000000
v 1.35072000 2.05600000 1.00000000
v -1.35072000 2.05600000 4.18592000
v -1.35072000 -0.37920000 4.18592000
v 1.35072000 -0.37920000 4.18592000
v 1.35072000 2.05600000 4.18592000
v -1.00000000 1.50379776 -0.39911424
v 1.00000000 1.50379776 -0.39911424
vt 0.0000000e+0 1.1102230e-16
vt 5.5511151e-17 0.63753114
vt 1.00000000 0.0000000e+0
vt 1.00000000 0.63753114
vn 0.0000000e+0 -1.00000000 0.0000000e+0
vn 0.0000000e+0 0.0000000e+0 -1.00000000
vn -1.00000000 0.0000000e+0 0.0000000e+0
vn 0.0000000e+0 -1.00000000 0.0000000e+0
vn -1.00000000 0.0000000e+0 0.0000000e+0
vn 0.0000000e+0 0.0000000e+0 -1.00000000
vn 0.0000000e+0 0.0000000e+0 0.0000000e+0
vn 0.0000000e+0 0.0000000e+0 -1.00000000
vn -1.00000000 0.0000000e+0 0.0000000e+0
vn 0.0000000e+0 0.47125993 -0.88199438
vn 0.0000000e+0 1.00000000 0.0000000e+0
vn -1.00000000 0.0000000e+0 0.0000000e+0
vn 0.0000000e+0 0.0000000e+0 -1.00000000
vn 0.0000000e+0 0.0000000e+0 -1.00000000
vn 0.0000000e+0 -1.00000000 0.0000000e+0
vn 0.0000000e+0 0.0000000e+0 -1.00000000
vn 1.00000000 0.0000000e+0 0.0000000e+0
vn 0.0000000e+0 -1.00000000 0.0000000e+0
vn 1.00000000 0.0000000e+0 0.0000000e+0
vn 0.0000000e+0 0.0000000e+0 0.0000000e+0
vn 0.0000000e+0 0.0000000e+0 -1.00000000
vn 0.0000000e+0 0.0000000e+0 -1.00000000
vn 1.00000000 0.0000000e+0 0.0000000e+0
vn 0.0000000e+0 0.47125993 -0.88199438
vn 0.0000000e+0 1.00000000 0.0000000e+0
vn 1.00000000 0.0000000e+0 0.0000000e+0
vn 0.0000000e+0 0.0000000e+0 -1.00000000
vn 0.0000000e+0 0.0000000e+0 -1.00000000
vn 0.0000000e+0 0.0000000e+0 -1.00000000
vn 0.0000000e+0 0.0000000e+0 -1.00000000
vn -1.00000000 0.0000000e+0 0.0000000e+0
vn 0.0000000e+0 1.00000000 0.0000000e+0
vn 0.0000000e+0 0.0000000e+0 -1.00000000
vn 0.0000000e+0 0.0000000e+0 0.0000000e+0
vn -1.00000000 0.0000000e+0 0.0000000e+0
vn 0.0000000e+0 -1.00000000 0.0000000e+0
vn 0.0000000e+0 0.0000000e+0 0.0000000e+0
vn 0.0000000e+0 0.0000000e+0 -1.00000000
vn 0.0000000e+0 -1.00000000 0.0000000e+0
vn 1.00000000 0.0000000e+0 0.0000000e+0
vn 0.0000000e+0 0.0000000e+0 -1.00000000
vn 0.0000000e+0 0.0000000e+0 -1.00000000
vn 1.00000000 0.0000000e+0 0.0000000e+0
vn 0.0000000e+0 1.00000000 0.0000000e+0
vn 0.0000000e+0 0.0000000e+0 1.00000000
vn -1.00000000 0.0000000e+0 0.0000000e+0
vn 0.0000000e+0 1.00000000 0.0000000e+0
vn 0.0000000e+0 0.0000000e+0 1.00000000
vn -1.00000000 0.0000000e+0 0.0000000e+0
vn 0.0000000e+0 -1.00000000 0.0000000e+0
vn 0.0000000e+0 0.0000000e+0 1.00000000
vn 0.0000000e+0 -1.00000000 0.0000000e+0
vn 1.00000000 0.0000000e+0 0.0000000e+0
vn 0.0000000e+0 0.0000000e+0 1.00000000
vn 1.00000000 0.0000000e+0 0.0000000e+0
vn 0.0000000e+0 1.00000000 0.0000000e+0
vn 0.0000000e+0 1.00000000 0.0000000e+0
vn -1.00000000 0.0000000e+0 0.0000000e+0
vn 0.0000000e+0 0.47125993 -0.88199438
vn 0.0000000e+0 1.00000000 0.0000000e+0
vn 1.00000000 0.0000000e+0 0.0000000e+0
vn 0.0000000e+0 0.47125993 -0.88199438
g Cube1_Cube1_auv
usemtl Cube1_auv
s 3
f 17/4/59 18/2/62 7/1/24 3/3/10
g Cube1_default
usemtl default
s 1
f 2//5 4//12 17//58 3//9 1//3
f 4//14 9//30 12//42 8//28
f 5//17 7//23 18//61 8//26 6//19
f 6//20 11//37 10//34 2//7
f 14//48 15//51 16//54 13//45
s 2
f 2//6 10//33 9//29 4//13
f 3//8 7//22 5//16 1//2
f 8//25 18//60 17//57 4//11
f 12//43 16//55 15//53 11//40
s 3
f 1//1 5//15 6//18 2//4
f 8//27 12//41 11//38 6//21
f 10//35 14//49 13//46 9//31
s 4
f 9//32 13//47 16//56 12//44
f 11//39 15//52 14//50 10//36
