# Exported from Wings 3D 2.2.5
mtllib F1racecar1.mtl
o Cube1
#56 vertices, 52 faces
v -1.00000000 -0.25866667 -1.00000000
v -1.00000000 -0.25866667 1.00000000
v -1.00000000 0.25866667 -1.00000000
v -1.00000000 0.25866667 1.00000000
v 1.00000000 -0.25866667 -1.00000000
v 1.00000000 -0.25866667 1.00000000
v 1.00000000 0.25866667 -1.00000000
v 1.00000000 0.25866667 1.00000000
v -0.33333333 -0.25866667 1.40960000
v 0.33333333 -0.25866667 1.40960000
v -0.33333333 0.25866667 1.40960000
v 0.33333333 0.25866667 1.40960000
v 0.33333333 -0.25866667 2.63900302
v 0.33333333 -9.6866133e-2 2.63900302
v -0.33333333 -9.6866133e-2 2.63900302
v -0.33333333 -0.25866667 2.63900302
v -0.33333333 0.25866667 -1.13243733
v 0.33333333 0.25866667 -1.13243733
v -0.33333333 0.25866667 0.20480000
v 0.33333333 0.25866667 0.20480000
v -0.33333333 0.82254933 0.20480000
v 0.33333333 0.82254933 0.20480000
v 0.33333333 0.42796800 -1.00000000
v -0.33333333 0.42796800 -1.00000000
v -0.33333333 -0.25866667 -1.13243733
v 0.33333333 -0.25866667 -1.13243733
v -0.33333333 -0.25866667 -2.03219200
v -0.33333333 0.25866667 -2.03219200
v 0.33333333 0.25866667 -2.03219200
v 0.33333333 -0.25866667 -2.03219200
v 0.33333333 -0.25866667 1.81940101
v 0.33333333 -0.25866667 2.22920201
v 0.33333333 0.14015573 1.81940101
v 0.33333333 2.1644800e-2 2.22920201
v -0.33333333 0.14015573 1.81940101
v -0.33333333 2.1644800e-2 2.22920201
v -0.33333333 -0.25866667 1.81940101
v -0.33333333 -0.25866667 2.22920201
v -0.87186634 -0.25866667 2.63900302
v -0.87186634 -9.6866133e-2 2.63900302
v -0.87186634 2.1644800e-2 2.22920201
v -0.87186634 -0.25866667 2.22920201
v 0.87186634 -9.6866133e-2 2.63900302
v 0.87186634 -0.25866667 2.63900302
v 0.87186634 -0.25866667 2.22920201
v 0.87186634 2.1644800e-2 2.22920201
v -0.33333333 0.25866667 -2.41154304
v 0.33333333 0.25866667 -2.41154304
v -0.94902235 0.25866667 -2.03219200
v 0.94902235 0.25866667 -2.03219200
v 0.94902235 0.25866667 -2.41154304
v -0.94902235 0.25866667 -2.41154304
v -0.94902235 0.41712126 -2.03219200
v 0.94902235 0.41712126 -2.03219200
v 0.94902235 0.41712126 -2.41154304
v -0.94902235 0.41712126 -2.41154304
vn 0.0000000e+0 -1.00000000 -5.8770362e-18
vn -1.00000000 0.0000000e+0 0.0000000e+0
vn -0.19484843 0.0000000e+0 -0.98083336
vn 0.0000000e+0 -1.00000000 -5.8770362e-18
vn -0.52348880 0.0000000e+0 0.85203255
vn -1.00000000 0.0000000e+0 0.0000000e+0
vn 0.0000000e+0 1.00000000 0.0000000e+0
vn -1.00000000 0.0000000e+0 0.0000000e+0
vn -0.19484843 0.0000000e+0 -0.98083336
vn 0.0000000e+0 1.00000000 0.0000000e+0
vn -0.52348880 0.0000000e+0 0.85203255
vn -1.00000000 0.0000000e+0 0.0000000e+0
vn 0.0000000e+0 -1.00000000 -5.8770362e-18
vn 1.00000000 0.0000000e+0 0.0000000e+0
vn 0.19484843 0.0000000e+0 -0.98083336
vn 0.0000000e+0 -1.00000000 -5.8770362e-18
vn 1.00000000 0.0000000e+0 0.0000000e+0
vn 0.52348880 0.0000000e+0 0.85203255
vn 1.00000000 0.0000000e+0 0.0000000e+0
vn 0.0000000e+0 1.00000000 0.0000000e+0
vn 0.19484843 0.0000000e+0 -0.98083336
vn 1.00000000 0.0000000e+0 0.0000000e+0
vn 0.52348880 0.0000000e+0 0.85203255
vn 0.0000000e+0 1.00000000 0.0000000e+0
vn 0.0000000e+0 -1.00000000 -5.8770362e-18
vn -0.52348880 0.0000000e+0 0.85203255
vn -1.00000000 0.0000000e+0 0.0000000e+0
vn 0.0000000e+0 -1.00000000 0.0000000e+0
vn 0.0000000e+0 -1.00000000 -5.8770362e-18
vn 0.52348880 0.0000000e+0 0.85203255
vn 1.00000000 0.0000000e+0 0.0000000e+0
vn 0.0000000e+0 -1.00000000 0.0000000e+0
vn 0.0000000e+0 1.00000000 0.0000000e+0
vn -0.52348880 0.0000000e+0 0.85203255
vn 0.0000000e+0 0.96063666 0.27780787
vn -1.00000000 0.0000000e+0 0.0000000e+0
vn 0.0000000e+0 1.00000000 0.0000000e+0
vn 0.52348880 0.0000000e+0 0.85203255
vn 1.00000000 0.0000000e+0 0.0000000e+0
vn 0.0000000e+0 0.96063666 0.27780787
vn 0.0000000e+0 1.00000000 0.0000000e+0
vn 0.0000000e+0 1.00000000 0.0000000e+0
vn 0.0000000e+0 0.0000000e+0 1.00000000
vn 0.0000000e+0 -1.00000000 0.0000000e+0
vn 0.0000000e+0 0.0000000e+0 1.00000000
vn 0.0000000e+0 -1.00000000 0.0000000e+0
vn 0.0000000e+0 0.0000000e+0 1.00000000
vn 0.0000000e+0 0.96063666 0.27780787
vn 0.0000000e+0 0.0000000e+0 1.00000000
vn 0.0000000e+0 0.96063666 0.27780787
vn 0.0000000e+0 0.0000000e+0 1.00000000
vn 0.0000000e+0 0.96063666 0.27780787
vn 0.0000000e+0 0.0000000e+0 1.00000000
vn 0.0000000e+0 0.96063666 0.27780787
vn 0.0000000e+0 0.0000000e+0 1.00000000
vn 0.0000000e+0 -1.00000000 0.0000000e+0
vn 0.0000000e+0 0.0000000e+0 1.00000000
vn 0.0000000e+0 -1.00000000 0.0000000e+0
vn 0.0000000e+0 1.00000000 0.0000000e+0
vn 0.0000000e+0 0.61613698 -0.78763902
vn -1.00000000 0.0000000e+0 0.0000000e+0
vn -0.19484843 0.0000000e+0 -0.98083336
vn -1.00000000 0.0000000e+0 0.0000000e+0
vn 0.0000000e+0 1.00000000 0.0000000e+0
vn 0.0000000e+0 1.00000000 0.0000000e+0
vn 1.00000000 0.0000000e+0 0.0000000e+0
vn 0.0000000e+0 0.61613698 -0.78763902
vn 0.19484843 0.0000000e+0 -0.98083336
vn 0.0000000e+0 1.00000000 0.0000000e+0
vn 1.00000000 0.0000000e+0 0.0000000e+0
vn 0.0000000e+0 1.00000000 0.0000000e+0
vn 0.0000000e+0 1.00000000 0.0000000e+0
vn 0.0000000e+0 0.0000000e+0 1.00000000
vn -1.00000000 0.0000000e+0 0.0000000e+0
vn 0.0000000e+0 1.00000000 0.0000000e+0
vn 0.0000000e+0 1.00000000 0.0000000e+0
vn 0.0000000e+0 0.0000000e+0 1.00000000
vn 1.00000000 0.0000000e+0 0.0000000e+0
vn 0.0000000e+0 0.95033108 -0.31124079
vn 0.0000000e+0 0.0000000e+0 1.00000000
vn -1.00000000 0.0000000e+0 0.0000000e+0
vn 0.0000000e+0 0.95033108 -0.31124079
vn 0.0000000e+0 0.0000000e+0 1.00000000
vn 1.00000000 0.0000000e+0 0.0000000e+0
vn 0.0000000e+0 0.95033108 -0.31124079
vn 1.00000000 0.0000000e+0 0.0000000e+0
vn 0.0000000e+0 0.61613698 -0.78763902
vn 0.0000000e+0 0.95033108 -0.31124079
vn 0.0000000e+0 0.61613698 -0.78763902
vn -1.00000000 0.0000000e+0 0.0000000e+0
vn 0.0000000e+0 -1.00000000 -5.8770362e-18
vn -0.19484843 0.0000000e+0 -0.98083336
vn -1.00000000 0.0000000e+0 0.0000000e+0
vn 0.0000000e+0 -1.00000000 0.0000000e+0
vn 0.0000000e+0 -1.00000000 -5.8770362e-18
vn 0.19484843 0.0000000e+0 -0.98083336
vn 1.00000000 0.0000000e+0 0.0000000e+0
vn 0.0000000e+0 -1.00000000 0.0000000e+0
vn 0.0000000e+0 -0.59133656 -0.80642487
vn -1.00000000 0.0000000e+0 0.0000000e+0
vn 0.0000000e+0 -1.00000000 0.0000000e+0
vn -1.00000000 0.0000000e+0 0.0000000e+0
vn -1.00000000 0.0000000e+0 0.0000000e+0
vn 0.0000000e+0 1.00000000 0.0000000e+0
vn -1.00000000 0.0000000e+0 0.0000000e+0
vn 0.0000000e+0 0.0000000e+0 0.0000000e+0
vn 0.0000000e+0 -1.00000000 0.0000000e+0
vn 0.0000000e+0 1.00000000 0.0000000e+0
vn 1.00000000 0.0000000e+0 0.0000000e+0
vn 1.00000000 0.0000000e+0 0.0000000e+0
vn 0.0000000e+0 0.0000000e+0 0.0000000e+0
vn 0.0000000e+0 -1.00000000 0.0000000e+0
vn 0.0000000e+0 -0.59133656 -0.80642487
vn 1.00000000 0.0000000e+0 0.0000000e+0
vn 0.0000000e+0 -1.00000000 0.0000000e+0
vn 1.00000000 0.0000000e+0 0.0000000e+0
vn 1.00000000 0.0000000e+0 0.0000000e+0
vn 0.0000000e+0 -1.00000000 0.0000000e+0
vn 1.00000000 0.0000000e+0 0.0000000e+0
vn 0.0000000e+0 -1.00000000 0.0000000e+0
vn 1.00000000 0.0000000e+0 0.0000000e+0
vn 0.0000000e+0 -1.00000000 0.0000000e+0
vn 0.0000000e+0 -1.00000000 0.0000000e+0
vn 0.0000000e+0 -1.00000000 0.0000000e+0
vn 0.0000000e+0 0.0000000e+0 -1.00000000
vn 1.00000000 0.0000000e+0 0.0000000e+0
vn 0.0000000e+0 0.96063666 0.27780787
vn 1.00000000 0.0000000e+0 0.0000000e+0
vn 0.0000000e+0 0.96063666 0.27780787
vn 1.00000000 0.0000000e+0 0.0000000e+0
vn 0.0000000e+0 0.96063666 0.27780787
vn 0.0000000e+0 0.96063666 0.27780787
vn 0.0000000e+0 0.0000000e+0 -1.00000000
vn 0.0000000e+0 0.96063666 0.27780787
vn 0.0000000e+0 0.96063666 0.27780787
vn -1.00000000 0.0000000e+0 0.0000000e+0
vn 0.0000000e+0 0.96063666 0.27780787
vn -1.00000000 0.0000000e+0 0.0000000e+0
vn 0.0000000e+0 0.96063666 0.27780787
vn 0.0000000e+0 0.96063666 0.27780787
vn -1.00000000 0.0000000e+0 0.0000000e+0
vn 0.0000000e+0 0.96063666 0.27780787
vn 0.0000000e+0 0.0000000e+0 -1.00000000
vn -1.00000000 0.0000000e+0 0.0000000e+0
vn 0.0000000e+0 -1.00000000 0.0000000e+0
vn -1.00000000 0.0000000e+0 0.0000000e+0
vn 0.0000000e+0 -1.00000000 0.0000000e+0
vn -1.00000000 0.0000000e+0 0.0000000e+0
vn 0.0000000e+0 -1.00000000 0.0000000e+0
vn 0.0000000e+0 -1.00000000 0.0000000e+0
vn 0.0000000e+0 0.0000000e+0 -1.00000000
vn 0.0000000e+0 -1.00000000 0.0000000e+0
vn -1.00000000 0.0000000e+0 0.0000000e+0
vn 0.0000000e+0 0.0000000e+0 1.00000000
vn 0.0000000e+0 -1.00000000 0.0000000e+0
vn -1.00000000 0.0000000e+0 0.0000000e+0
vn 0.0000000e+0 0.0000000e+0 1.00000000
vn 0.0000000e+0 0.96063666 0.27780787
vn -1.00000000 0.0000000e+0 0.0000000e+0
vn 0.0000000e+0 0.96063666 0.27780787
vn 0.0000000e+0 0.0000000e+0 -1.00000000
vn -1.00000000 0.0000000e+0 0.0000000e+0
vn 0.0000000e+0 0.0000000e+0 -1.00000000
vn 0.0000000e+0 -1.00000000 0.0000000e+0
vn 1.00000000 0.0000000e+0 0.0000000e+0
vn 0.0000000e+0 0.0000000e+0 1.00000000
vn 0.0000000e+0 0.96063666 0.27780787
vn 1.00000000 0.0000000e+0 0.0000000e+0
vn 0.0000000e+0 0.0000000e+0 1.00000000
vn 0.0000000e+0 -1.00000000 0.0000000e+0
vn 1.00000000 0.0000000e+0 0.0000000e+0
vn 0.0000000e+0 -1.00000000 0.0000000e+0
vn 0.0000000e+0 0.0000000e+0 -1.00000000
vn 1.00000000 0.0000000e+0 0.0000000e+0
vn 0.0000000e+0 0.0000000e+0 -1.00000000
vn 0.0000000e+0 0.96063666 0.27780787
vn 0.0000000e+0 -0.59133656 -0.80642487
vn -1.00000000 0.0000000e+0 0.0000000e+0
vn 0.0000000e+0 0.0000000e+0 0.0000000e+0
vn 0.0000000e+0 -1.00000000 0.0000000e+0
vn 0.0000000e+0 -0.59133656 -0.80642487
vn 1.00000000 0.0000000e+0 0.0000000e+0
vn 0.0000000e+0 -1.00000000 0.0000000e+0
vn 0.0000000e+0 0.0000000e+0 0.0000000e+0
vn 0.0000000e+0 0.0000000e+0 0.0000000e+0
vn 0.0000000e+0 -1.00000000 0.0000000e+0
vn 0.0000000e+0 0.0000000e+0 1.00000000
vn -1.00000000 0.0000000e+0 0.0000000e+0
vn 0.0000000e+0 0.0000000e+0 0.0000000e+0
vn 0.0000000e+0 -1.00000000 0.0000000e+0
vn 0.0000000e+0 0.0000000e+0 1.00000000
vn 1.00000000 0.0000000e+0 0.0000000e+0
vn 0.0000000e+0 -1.00000000 0.0000000e+0
vn 0.0000000e+0 0.0000000e+0 0.0000000e+0
vn 1.00000000 0.0000000e+0 0.0000000e+0
vn 0.0000000e+0 0.0000000e+0 -1.00000000
vn 0.0000000e+0 0.0000000e+0 0.0000000e+0
vn 0.0000000e+0 -1.00000000 0.0000000e+0
vn 0.0000000e+0 0.0000000e+0 -1.00000000
vn -1.00000000 0.0000000e+0 0.0000000e+0
vn 0.0000000e+0 1.00000000 0.0000000e+0
vn 0.0000000e+0 0.0000000e+0 1.00000000
vn -1.00000000 0.0000000e+0 0.0000000e+0
vn 0.0000000e+0 1.00000000 0.0000000e+0
vn 0.0000000e+0 0.0000000e+0 1.00000000
vn 1.00000000 0.0000000e+0 0.0000000e+0
vn 0.0000000e+0 1.00000000 0.0000000e+0
vn 1.00000000 0.0000000e+0 0.0000000e+0
vn 0.0000000e+0 0.0000000e+0 -1.00000000
vn 0.0000000e+0 1.00000000 0.0000000e+0
vn 0.0000000e+0 0.0000000e+0 -1.00000000
vn -1.00000000 0.0000000e+0 0.0000000e+0
g Cube1_default
usemtl default
s 1
f 2//6 4//12 3//8 1//2
f 5//14 7//19 8//22 6//17
f 9//27 37//144 35//136 11//36
f 12//42 20//76 19//72 11//37
f 12//39 33//126 31//117 10//31
f 14//47 15//51 16//55 13//43
f 14//50 43//167 46//176 34//134
f 17//60 24//89 23//87 18//67
f 26//97 30//114 29//109 18//70
f 28//105 47//178 27//102
f 32//122 38//149 37//147 31//120
f 32//124 45//172 44//170 13//46
f 33//129 35//137 36//139 34//131
f 40//156 41//159 42//162 39//153
f 47//179 52//197 51//194 48//184
f 50//191 54//205 53//202 49//187
s 2
f 2//5 9//26 11//34 4//11
f 3//9 17//62 25//92 1//3
f 5//15 26//96 18//68 7//21
f 8//23 12//38 10//30 6//18
f 10//32 31//118 37//145 9//28
f 11//35 35//135 33//127 12//40
f 13//45 44//169 43//166 14//49
f 14//48 34//132 36//140 15//52
f 15//53 40//157 39//154 16//57
f 16//56 38//150 32//123 13//44
f 18//66 23//86 22//84 20//78
f 18//69 29//108 28//104 17//64
f 19//74 21//81 24//90 17//61
f 34//133 46//175 45//173 32//125
f 35//138 37//146 38//148 36//141
f 47//177 48//181 30//113 27//99
f 49//188 53//203 56//212 52//200
f 51//195 55//208 54//206 50//192
s 3
f 1//1 25//91 26//95 5//13 6//16 10//29 9//25 2//4
f 4//10 11//33 19//71 17//59 3//7
f 7//20 18//65 20//75 12//41 8//24
f 17//63 28//103 27//100 25//93
f 22//82 23//85 24//88 21//79
f 29//111 50//189 49//185 28//106
f 30//116 48//182 29//110
f 31//119 33//128 34//130 32//121
f 38//151 42//163 41//161 36//143
f 44//168 45//171 46//174 43//165
f 54//204 55//207 56//210 53//201
s 4
f 16//58 39//155 42//164 38//152
f 20//77 22//83 21//80 19//73
f 25//94 27//101 30//115 26//98
f 28//107 49//186 52//198 47//180
f 36//142 41//160 40//158 15//54
f 48//183 51//193 50//190 29//112
f 52//199 56//211 55//209 51//196
