# Exported from Wings 3D 2.2.5
mtllib sportcar2.mtl
o Cube1
#14 vertices, 17 faces
v -1.57422222 -0.28355556 -1.00000000
v -1.57422222 -0.28355556 1.00000000
v -1.57422222 0.28355556 -1.00000000
v -1.57422222 0.28355556 1.00000000
v 1.80661998 -0.28355556 -0.72158339
v 1.80661998 -0.28355556 0.72158339
v 1.80661998 -5.4364444e-2 -0.72158339
v 1.80661998 -5.4364444e-2 0.72158339
v -0.78711111 0.69088000 -1.00000000
v 0.0000000e+0 0.69088000 -1.00000000
v 1.41763587 0.26787308 -0.86487194
v -0.78711111 0.69088000 1.00000000
v 0.0000000e+0 0.69088000 1.00000000
v 1.41763587 0.26787308 0.86487194
vt 0.0000000e+0 0.0000000e+0
vt 4.1748545e-2 0.74501208
vt 0.25997166 9.9908833e-2
vt 0.29552555 0.64980191
vt 0.50816948 0.12825871
vt 0.53983495 0.63572210
vt 0.96990588 7.3240793e-2
vt 1.00000000 0.70173290
vn 0.0000000e+0 -1.00000000 0.0000000e+0
vn 8.0462902e-2 -0.19713173 -0.97706950
vn -1.00000000 0.0000000e+0 0.0000000e+0
vn 4.5119267e-2 0.0000000e+0 -0.99898161
vn 0.0000000e+0 -1.00000000 0.0000000e+0
vn -1.00000000 0.0000000e+0 0.0000000e+0
vn 8.0462902e-2 -0.19713173 0.97706950
vn 4.5119267e-2 0.0000000e+0 0.99898161
vn -0.45959917 0.88812646 0.0000000e+0
vn -1.00000000 0.0000000e+0 0.0000000e+0
vn 4.5119267e-2 0.0000000e+0 -0.99898161
vn 4.4502269e-2 -8.5995896e-2 -0.99530109
vn -0.45959917 0.88812646 0.0000000e+0
vn -1.00000000 0.0000000e+0 0.0000000e+0
vn 4.5119267e-2 0.0000000e+0 0.99898161
vn 4.4502269e-2 -8.5995896e-2 0.99530109
vn 0.0000000e+0 -1.00000000 0.0000000e+0
vn 8.0462902e-2 -0.19713173 -0.97706950
vn 1.00000000 0.0000000e+0 0.0000000e+0
vn 0.34565993 0.0000000e+0 -0.93835985
vn 0.0000000e+0 -1.00000000 0.0000000e+0
vn 1.00000000 0.0000000e+0 0.0000000e+0
vn 0.34565993 0.0000000e+0 0.93835985
vn 8.0462902e-2 -0.19713173 0.97706950
vn 1.00000000 0.0000000e+0 0.0000000e+0
vn 0.63794321 0.77008341 0.0000000e+0
vn 0.34565993 0.0000000e+0 -0.93835985
vn 1.00000000 0.0000000e+0 0.0000000e+0
vn 0.63794321 0.77008341 0.0000000e+0
vn 0.34565993 0.0000000e+0 0.93835985
vn -0.45959917 0.88812646 0.0000000e+0
vn 0.0000000e+0 1.00000000 0.0000000e+0
vn 4.4502269e-2 -8.5995896e-2 -0.99530109
vn 0.0000000e+0 -0.30429737 -0.95257709
vn 0.0000000e+0 1.00000000 0.0000000e+0
vn 0.28593128 0.95825013 0.0000000e+0
vn 0.0000000e+0 -0.30429737 -0.95257709
vn 8.0462902e-2 -0.19713173 -0.97706950
vn 0.28593128 0.95825013 0.0000000e+0
vn 0.63794321 0.77008341 0.0000000e+0
vn 0.34565993 0.0000000e+0 -0.93835985
vn 4.5119267e-2 0.0000000e+0 -0.99898161
vn 4.4502269e-2 -8.5995896e-2 -0.99530109
vn 0.0000000e+0 -0.30429737 -0.95257709
vn -0.45959917 0.88812646 0.0000000e+0
vn 0.0000000e+0 -0.30429737 0.95257709
vn 0.0000000e+0 1.00000000 0.0000000e+0
vn 4.4502269e-2 -8.5995896e-2 0.99530109
vn 0.0000000e+0 -0.30429737 0.95257709
vn 0.0000000e+0 1.00000000 0.0000000e+0
vn 0.28593128 0.95825013 0.0000000e+0
vn 0.0000000e+0 -0.30429737 0.95257709
vn 0.28593128 0.95825013 0.0000000e+0
vn 0.63794321 0.77008341 0.0000000e+0
vn 0.34565993 0.0000000e+0 0.93835985
vn 8.0462902e-2 -0.19713173 0.97706950
vn 4.5119267e-2 0.0000000e+0 0.99898161
vn 4.4502269e-2 -8.5995896e-2 0.99530109
g Cube1_Cube1_auv
usemtl Cube1_auv
s 1
f 4/1/16 14/7/58 12/3/48
f 9/4/33 11/8/43 3/2/12
s 2
f 4/1/13 12/3/45 9/4/31 3/2/9
f 10/6/37 11/8/44 9/4/34
f 12/3/46 14/7/52 13/5/49
s 3
f 10/6/36 13/5/51 14/7/53 11/8/39
g Cube1_default
usemtl default
s 1
f 1//2 11//38 5//18
f 2//6 4//14 3//10 1//3
f 5//19 7//25 8//28 6//22
f 6//24 14//56 2//7
f 9//32 12//47 13//50 10//35
s 2
f 1//1 5//17 6//21 2//5
f 2//8 14//57 4//15
f 3//11 11//42 1//4
f 5//20 11//41 7//27
f 8//30 14//55 6//23
s 4
f 7//26 11//40 14//54 8//29
