# Exported from Wings 3D 2.2.5
mtllib truck1.mtl
o Cube1
#36 vertices, 29 faces
v -1.00000000 -0.24444444 -2.07200000
v -1.00000000 -0.24444444 2.07200000
v -1.00000000 0.24444444 -2.07200000
v -1.00000000 0.24444444 2.07200000
v 1.00000000 -0.24444444 -2.07200000
v 1.00000000 -0.24444444 2.07200000
v 1.00000000 0.24444444 -2.07200000
v 1.00000000 0.24444444 2.07200000
v -1.00000000 0.24444444 0.0000000e+0
v 1.00000000 0.24444444 0.0000000e+0
v -1.00000000 1.97777778 0.0000000e+0
v 1.00000000 1.97777778 0.0000000e+0
v 1.00000000 0.64549234 -2.07200000
v -1.00000000 0.64549234 -2.07200000
v 1.00000000 0.98193778 -1.65760000
v 1.00000000 1.85233778 -1.24320000
v 1.00000000 1.97777778 -0.82880000
v 1.00000000 1.97777778 -0.41440000
v -1.00000000 1.97777778 -0.41440000
v -1.00000000 1.97777778 -0.82880000
v -1.00000000 1.85233778 -1.24320000
v -1.00000000 0.98193778 -1.65760000
v -0.53333333 0.87544178 -2.07200000
v 0.53333333 0.87748978 -2.07200000
v -0.53333333 1.85028978 -1.24320000
v 0.53333333 1.85233778 -1.24320000
v -0.53333333 0.97988978 -1.65760000
v 0.53333333 0.98193778 -1.65760000
v -1.00000000 0.99798034 0.0000000e+0
v -1.00000000 1.82942962 0.0000000e+0
v 1.00000000 0.99798034 0.0000000e+0
v 1.00000000 1.82942962 0.0000000e+0
v 1.00000000 0.98995906 -0.67369799
v -1.00000000 0.98995906 -0.67369799
v 1.00000000 1.84088370 -0.62160000
v -1.00000000 1.84088370 -0.62160000
vt 0.0000000e+0 0.11460516
vt 8.4552475e-2 0.32434677
vt 0.23473504 4.9050676e-4
vt 0.23473504 0.25620956
vt 0.35852528 4.9050676e-4
vt 0.35852528 0.25620956
vt 0.64147450 0.0000000e+0
vt 0.64147450 0.25571906
vt 0.76526496 0.25620956
vt 0.76526496 4.9050676e-4
vt 0.91544752 0.32434677
vt 1.00000000 0.11460516
vn 0.0000000e+0 -1.00000000 0.0000000e+0
vn 0.0000000e+0 0.0000000e+0 -1.00000000
vn -1.00000000 0.0000000e+0 0.0000000e+0
vn 0.0000000e+0 -1.00000000 0.0000000e+0
vn 0.0000000e+0 0.0000000e+0 1.00000000
vn -1.00000000 0.0000000e+0 0.0000000e+0
vn 0.0000000e+0 0.0000000e+0 -1.00000000
vn -1.00000000 0.0000000e+0 0.0000000e+0
vn 1.9203774e-16 0.0000000e+0 -1.00000000
vn -1.00000000 0.0000000e+0 0.0000000e+0
vn 0.0000000e+0 1.00000000 0.0000000e+0
vn 0.0000000e+0 0.0000000e+0 1.00000000
vn -1.00000000 0.0000000e+0 0.0000000e+0
vn 0.0000000e+0 -1.00000000 0.0000000e+0
vn 0.0000000e+0 0.0000000e+0 -1.00000000
vn 1.00000000 0.0000000e+0 0.0000000e+0
vn 0.0000000e+0 -1.00000000 0.0000000e+0
vn 0.0000000e+0 0.0000000e+0 1.00000000
vn 1.00000000 0.0000000e+0 0.0000000e+0
vn 0.0000000e+0 0.0000000e+0 -1.00000000
vn 1.00000000 0.0000000e+0 0.0000000e+0
vn 1.00000000 0.0000000e+0 0.0000000e+0
vn 1.9203774e-16 0.0000000e+0 -1.00000000
vn 0.0000000e+0 1.00000000 0.0000000e+0
vn 0.0000000e+0 0.0000000e+0 1.00000000
vn 1.00000000 0.0000000e+0 0.0000000e+0
vn 0.0000000e+0 1.00000000 0.0000000e+0
vn -1.00000000 0.0000000e+0 0.0000000e+0
vn 0.0000000e+0 0.0000000e+0 1.00000000
vn -1.00000000 0.0000000e+0 0.0000000e+0
vn 0.0000000e+0 1.00000000 0.0000000e+0
vn 1.00000000 0.0000000e+0 0.0000000e+0
vn 0.0000000e+0 0.0000000e+0 1.00000000
vn 1.00000000 0.0000000e+0 0.0000000e+0
vn 0.0000000e+0 1.00000000 0.0000000e+0
vn 0.0000000e+0 0.0000000e+0 1.00000000
vn -1.00000000 3.8497132e-16 0.0000000e+0
vn 0.0000000e+0 1.00000000 0.0000000e+0
vn 0.0000000e+0 0.0000000e+0 1.00000000
vn 1.00000000 0.0000000e+0 0.0000000e+0
vn 1.00000000 0.0000000e+0 0.0000000e+0
vn 1.9203774e-16 0.0000000e+0 -1.00000000
vn 0.36006452 0.72427571 -0.58802911
vn 1.9203774e-16 0.0000000e+0 -1.00000000
vn -1.00000000 0.0000000e+0 0.0000000e+0
vn -0.35729333 0.72510239 -0.58870027
vn 1.00000000 0.0000000e+0 0.0000000e+0
vn 0.0000000e+0 0.42986915 -0.90289120
vn 0.36006452 0.72427571 -0.58802911
vn 0.0000000e+0 0.96967381 -0.24440273
vn 1.00000000 0.0000000e+0 0.0000000e+0
vn 3.2035702e-17 0.95660742 -0.29137991
vn 0.0000000e+0 0.42986915 -0.90289120
vn 1.00000000 0.0000000e+0 0.0000000e+0
vn 1.00000000 0.0000000e+0 0.0000000e+0
vn 0.0000000e+0 1.00000000 0.0000000e+0
vn 3.2035702e-17 0.95660742 -0.29137991
vn 1.00000000 0.0000000e+0 0.0000000e+0
vn 0.0000000e+0 1.00000000 0.0000000e+0
vn 0.0000000e+0 1.00000000 0.0000000e+0
vn 1.00000000 0.0000000e+0 0.0000000e+0
vn 0.0000000e+0 1.00000000 0.0000000e+0
vn 0.0000000e+0 1.00000000 0.0000000e+0
vn -1.00000000 3.8497132e-16 0.0000000e+0
vn 0.0000000e+0 1.00000000 0.0000000e+0
vn 3.2035702e-17 0.95660742 -0.29137991
vn -1.00000000 3.8497132e-16 0.0000000e+0
vn 3.2035702e-17 0.95660742 -0.29137991
vn 1.8865081e-3 0.42986839 -0.90288959
vn -1.00000000 0.0000000e+0 0.0000000e+0
vn -1.00000000 3.8497132e-16 0.0000000e+0
vn -1.00000000 0.0000000e+0 0.0000000e+0
vn 1.8865081e-3 0.42986839 -0.90288959
vn -0.35729333 0.72510239 -0.58870027
vn 4.2554443e-3 0.96966503 -0.24440052
vn -1.00000000 0.0000000e+0 0.0000000e+0
vn 1.9203774e-16 0.0000000e+0 -1.00000000
vn -0.35729333 0.72510239 -0.58870027
vn -1.8617705e-3 0.96967213 -0.24440230
vn 4.2554443e-3 0.96966503 -0.24440052
vn 1.9203774e-16 0.0000000e+0 -1.00000000
vn -1.8617705e-3 0.96967213 -0.24440230
vn 0.36006452 0.72427571 -0.58802911
vn 0.0000000e+0 0.96967381 -0.24440273
vn 3.2035702e-17 0.95660742 -0.29137991
vn 1.8865081e-3 0.42986839 -0.90288959
vn -8.2534849e-4 0.42986901 -0.90289089
vn 3.2035702e-17 0.95660742 -0.29137991
vn -8.2534849e-4 0.42986901 -0.90289089
vn 0.0000000e+0 0.42986915 -0.90289120
vn 1.8865081e-3 0.42986839 -0.90288959
vn -8.2534849e-4 0.42986901 -0.90289089
vn -1.8617705e-3 0.96967213 -0.24440230
vn 4.2554443e-3 0.96966503 -0.24440052
vn -8.2534849e-4 0.42986901 -0.90289089
vn 0.0000000e+0 0.42986915 -0.90289120
vn -1.8617705e-3 0.96967213 -0.24440230
vn 0.0000000e+0 0.96967381 -0.24440273
vn 0.0000000e+0 0.0000000e+0 1.00000000
vn -1.00000000 0.0000000e+0 0.0000000e+0
vn 0.0000000e+0 0.0000000e+0 1.00000000
vn -1.00000000 0.0000000e+0 0.0000000e+0
vn 0.0000000e+0 0.0000000e+0 1.00000000
vn 0.0000000e+0 0.0000000e+0 1.00000000
vn -1.00000000 3.8497132e-16 0.0000000e+0
vn -1.00000000 0.0000000e+0 0.0000000e+0
vn 0.0000000e+0 0.0000000e+0 1.00000000
vn 1.00000000 0.0000000e+0 0.0000000e+0
vn 0.0000000e+0 0.0000000e+0 1.00000000
vn 1.00000000 0.0000000e+0 0.0000000e+0
vn 0.0000000e+0 0.0000000e+0 1.00000000
vn 0.0000000e+0 0.0000000e+0 1.00000000
vn 1.00000000 0.0000000e+0 0.0000000e+0
vn 1.00000000 0.0000000e+0 0.0000000e+0
vn 1.00000000 0.0000000e+0 0.0000000e+0
vn 1.00000000 0.0000000e+0 0.0000000e+0
vn 1.00000000 0.0000000e+0 0.0000000e+0
vn -1.00000000 0.0000000e+0 0.0000000e+0
vn -1.00000000 0.0000000e+0 0.0000000e+0
vn -1.00000000 0.0000000e+0 0.0000000e+0
vn 1.00000000 0.0000000e+0 0.0000000e+0
vn 1.00000000 0.0000000e+0 0.0000000e+0
vn 1.00000000 0.0000000e+0 0.0000000e+0
vn -1.00000000 0.0000000e+0 0.0000000e+0
vn -1.00000000 3.8497132e-16 0.0000000e+0
vn -1.00000000 0.0000000e+0 0.0000000e+0
g Cube1_Cube1_auv
usemtl Cube1_auv
s 1
f 16/4/55 35/2/123 33/1/117 15/3/51
s 2
f 26/6/89 28/5/95 27/7/92 25/8/87
s 3
f 15/3/48 28/5/96 26/6/90 16/4/53
f 21/9/69 25/8/86 27/7/91 22/10/73
s 4
f 22/10/76 34/12/119 36/11/124 21/9/70
g Cube1_default
usemtl default
s 1
f 2//6 4//13 9//28 3//8 1//3
f 5//16 7//21 10//32 8//26 6//19
f 10//33 31//107 29//99 9//29
f 12//38 18//59 19//62 11//35
f 13//43 24//83 15//49
f 14//46 22//74 23//78
f 16//52 26//88 25//85 21//68 20//66 17//57
f 23//79 27//93 28//97 24//82
f 30//106 36//126 34//120 29//102
s 2
f 2//5 6//18 8//25 4//12
f 3//7 7//20 5//15 1//2
f 9//30 29//100 34//118 22//72 14//45 3//10
f 11//36 30//104 32//112 12//39
f 15//50 24//84 28//98
f 17//56 20//65 19//63 18//60
f 27//94 23//80 22//75
f 31//110 33//116 35//121 32//113
s 3
f 1//1 5//14 6//17 2//4
f 3//9 14//44 23//77 24//81 13//42 7//23
f 8//24 10//31 9//27 4//11
f 17//58 18//61 12//40 32//114 35//122 16//54
f 19//64 20//67 21//71 36//125 30//105 11//37
f 29//101 31//109 32//111 30//103
s 4
f 7//22 13//41 15//47 33//115 31//108 10//34
