# Exported from Wings 3D 2.2.5
mtllib van1.mtl
o Cube1
#10 vertices, 7 faces
v -1.83200000 -1.00000000 -1.00000000
v -1.83200000 -1.00000000 1.00000000
v -1.83200000 1.00000000 -1.00000000
v -1.83200000 1.00000000 1.00000000
v 1.83200000 -1.00000000 -1.00000000
v 1.83200000 -1.00000000 1.00000000
v 1.83200000 -2.5777778e-2 -1.00000000
v 1.83200000 -2.5777778e-2 1.00000000
v 1.16444444 1.00000000 -1.00000000
v 1.16444444 1.00000000 1.00000000
vt 0.0000000e+0 0.0000000e+0
vt 5.5511151e-17 0.61193351
vt 1.00000000 0.0000000e+0
vt 1.00000000 0.61193351
vn -0.57735027 -0.57735027 -0.57735027
vn -0.57735027 -0.57735027 0.57735027
vn -0.57735027 0.57735027 -0.57735027
vn -0.57735027 0.57735027 0.57735027
vn 0.57735027 -0.57735027 -0.57735027
vn 0.57735027 -0.57735027 0.57735027
vn 0.85001976 0.25223334 -0.46243351
vn 0.85001976 0.25223334 0.46243351
vn 0.41439057 0.76409110 -0.49441405
vn 0.41439057 0.76409110 0.49441405
g Cube1_Cube1_auv
usemtl Cube1_auv
s 1
f 7/3/7 9/4/9 10/2/10 8/1/8
g Cube1_default
usemtl default
s 1
f 1//1 5//5 6//6 2//2
f 2//2 4//4 3//3 1//1
f 2//2 6//6 8//8 10//10 4//4
f 3//3 9//9 7//7 5//5 1//1
f 4//4 10//10 9//9 3//3
f 5//5 7//7 8//8 6//6
