# Blender 3.1.0
# www.blender.org
mtllib Puerta Izq.mtl
o Puerta Izquierda
v 0.819438 0.899994 -0.140945
v 0.772984 0.893549 -0.158279
v 0.825902 0.813254 -0.131831
v 0.768745 0.897206 0.000845
v 0.758252 0.889239 0.029220
v 0.777069 0.811401 0.004865
v 0.722081 0.890803 -0.015918
v 0.711562 0.882954 0.012480
v 0.730280 0.809602 -0.011918
v 0.779282 0.811416 -0.149073
v 0.719999 0.804418 0.016164
v 0.738478 0.786475 -0.007918
v 0.785581 0.789097 -0.139867
v 0.728435 0.778981 0.019847
v 0.746677 0.701360 -0.003918
v 0.791879 0.710726 -0.130660
v 0.736872 0.674593 0.023531
v 0.737987 0.582190 -0.002676
v 0.775667 0.581879 -0.108351
v 0.728720 0.583079 0.023333
v 0.725377 0.437634 0.002986
v 0.745343 0.439421 -0.053004
v 0.717378 0.432526 0.025418
v 0.772373 0.434341 0.019735
v 0.792352 0.436125 -0.036292
v 0.764374 0.429242 0.042167
v 0.784948 0.578262 0.014031
v 0.822696 0.577983 -0.091826
v 0.775672 0.579059 0.040044
v 0.793717 0.703294 0.012905
v 0.838830 0.712897 -0.113604
v 0.783933 0.675848 0.040342
v 0.785393 0.787729 0.008885
v 0.832366 0.790414 -0.122718
v 0.775372 0.780055 0.036635
v 0.793961 0.791249 0.012816
v 0.783941 0.783576 0.040566
v 0.785637 0.814922 0.008797
v 0.800213 0.793818 0.015685
v 0.822472 0.790597 -0.082593
v 0.814148 0.814270 -0.086613
v 0.828724 0.793166 -0.079725
v 0.820400 0.816839 -0.083745
v 0.791889 0.817490 0.011665
v 0.781632 0.812195 0.039727
v 0.790193 0.786144 0.043434
v 0.775381 0.809626 0.036858
v 0.766812 0.806106 0.032927
v 0.653052 0.797367 0.350785
v 0.644102 0.876093 0.347593
v 0.662003 0.767393 0.353977
v 0.539344 0.793659 0.681231
v 0.532921 0.850614 0.676740
v 0.545767 0.769307 0.685723
v 0.492353 0.792249 0.664798
v 0.486010 0.844906 0.660408
v 0.498696 0.768579 0.669188
v 0.606234 0.795864 0.333955
v 0.597423 0.870003 0.330739
v 0.615044 0.766616 0.337170
v 0.623854 0.630424 0.340385
v 0.616565 0.584547 0.337883
v 0.505039 0.651012 0.673579
v 0.498067 0.570697 0.670266
v 0.552190 0.651141 0.690214
v 0.670953 0.630560 0.357168
v 0.544975 0.566206 0.686984
v 0.663530 0.580373 0.354521
v 0.535810 0.420161 0.683124
v 0.655102 0.420829 0.348598
v 0.488791 0.423403 0.666430
v 0.608088 0.424098 0.331894
v 0.742332 0.641775 -0.003297
v 0.789333 0.640778 0.013468
v 0.620210 0.607486 0.339134
v 0.501553 0.610855 0.671923
v 0.548582 0.608674 0.688599
v 0.667242 0.605467 0.355845
v 0.779802 0.627454 0.040193
v 0.830763 0.645440 -0.102715
v 0.732796 0.628836 0.023432
v 0.783773 0.646302 -0.119506
vn -0.1272 0.9915 -0.0262
vn 0.3531 -0.0745 -0.9326
vn 0.9358 0.1058 0.3362
vn -0.2000 0.9605 0.1935
vn 0.9244 0.1091 0.3655
vn -0.9354 -0.1102 -0.3361
vn -0.9235 -0.1138 -0.3664
vn -0.8727 -0.3707 -0.3178
vn -0.8506 -0.3530 -0.3897
vn -0.9345 -0.1102 -0.3385
vn -0.9162 -0.0962 -0.3890
vn -0.9404 0.0627 -0.3342
vn -0.9446 0.0739 -0.3199
vn -0.9398 0.0695 -0.3345
vn -0.9416 0.0678 -0.3297
vn -0.0520 -0.9974 -0.0503
vn 0.0096 -0.9758 -0.2186
vn 0.9398 -0.0695 0.3345
vn 0.9416 -0.0677 0.3298
vn 0.9405 -0.0607 0.3342
vn 0.9447 -0.0713 0.3199
vn 0.9341 0.1128 0.3386
vn 0.9153 0.0979 0.3908
vn 0.8738 0.3677 0.3182
vn 0.4168 -0.9035 -0.0993
vn 0.4193 -0.0067 -0.9078
vn -0.8947 -0.3596 -0.2649
vn 0.3356 -0.9359 0.1067
vn 0.8947 0.3596 0.2649
vn -0.3356 0.9359 -0.1067
vn -0.3917 0.9196 0.0304
vn 0.8515 0.3498 0.3907
vn -0.4147 -0.0068 0.9099
vn 0.8892 0.3184 0.3287
vn 0.9339 0.1155 0.3385
vn 0.9374 0.1246 0.3251
vn 0.9011 0.2994 0.3137
vn -0.3318 0.0377 0.9426
vn -0.3313 0.0857 0.9396
vn -0.9365 -0.1314 -0.3251
vn -0.9001 -0.3028 -0.3134
vn -0.9332 -0.1207 -0.3385
vn -0.8882 -0.3215 -0.3283
vn -0.9415 -0.0661 -0.3306
vn -0.9368 -0.0769 -0.3413
vn -0.9356 0.1210 -0.3317
vn -0.9371 0.1118 -0.3306
vn -0.3355 -0.0085 0.9420
vn -0.3322 0.0175 0.9431
vn 0.9362 -0.1159 0.3319
vn 0.9414 0.0667 0.3305
vn 0.9404 -0.0648 0.3339
vn -0.3354 -0.0036 0.9421
vn -0.0607 -0.9979 -0.0237
vn -0.9404 0.0649 -0.3339
vn -0.9402 0.0641 -0.3345
vn -0.0530 -0.9975 -0.0463
vn 0.9402 -0.0641 0.3345
vn 0.9376 -0.1067 0.3309
vn 0.9367 0.0778 0.3414
vn -0.1294 0.9916 -0.0057
vn -0.1356 0.9903 0.0302
vn 0.3443 -0.0817 -0.9353
vn 0.3408 -0.2691 -0.9008
vn 0.3349 -0.1951 -0.9218
vn 0.2781 -0.3999 -0.8733
vn 0.3189 -0.1942 -0.9277
vn 0.9401 -0.1068 0.3239
vn 0.9342 -0.1159 0.3373
vn -0.3336 -0.0087 0.9427
vn -0.9396 0.1120 -0.3235
vn -0.9336 0.1210 -0.3373
vn 0.9554 -0.0723 0.2863
vn 0.9413 -0.0609 0.3321
vn -0.9553 0.0749 -0.2861
vn -0.9412 0.0630 -0.3320
vt 0.000000 0.500000
vt 0.000000 0.500000
vt 0.000000 0.436562
vt 0.000000 0.500000
vt 0.000000 0.500000
vt 0.000000 0.436562
vt 0.000000 0.500000
vt 0.000000 0.500000
vt 0.000000 0.436562
vt 0.000000 0.436562
vt 0.000000 0.436562
vt 0.000000 0.373124
vt 0.000000 0.373124
vt 0.000000 0.373124
vt 0.000000 0.309686
vt 0.000000 0.309686
vt 0.000000 0.309686
vt 0.000000 0.244493
vt 0.000000 0.244493
vt 0.000000 0.244493
vt 0.000000 0.162362
vt 0.000000 0.162362
vt 0.000000 0.162362
vt 0.000000 0.162362
vt 0.000000 0.162362
vt 0.000000 0.162362
vt 0.000000 0.244493
vt 0.000000 0.244493
vt 0.000000 0.244493
vt 0.000000 0.309686
vt 0.000000 0.309686
vt 0.000000 0.309686
vt 0.000000 0.373124
vt 0.000000 0.373124
vt 0.000000 0.373124
vt 0.000000 0.373124
vt 0.000000 0.373124
vt 0.000000 0.436562
vt 0.000000 0.373124
vt 0.000000 0.373124
vt 0.000000 0.436562
vt 0.000000 0.373124
vt 0.000000 0.436562
vt 0.000000 0.436562
vt 0.000000 0.436562
vt 0.000000 0.373124
vt 0.000000 0.436562
vt 0.000000 0.436562
vt 0.000000 0.436562
vt 0.000000 0.500000
vt 0.000000 0.373124
vt 0.000000 0.436562
vt 0.000000 0.500000
vt 0.000000 0.373124
vt 0.000000 0.436562
vt 0.000000 0.500000
vt 0.000000 0.373124
vt 0.000000 0.436562
vt 0.000000 0.500000
vt 0.000000 0.373124
vt 0.000000 0.309686
vt 0.000000 0.244493
vt 0.000000 0.309686
vt 0.000000 0.244493
vt 0.000000 0.309686
vt 0.000000 0.309686
vt 0.000000 0.244493
vt 0.000000 0.244493
vt 0.000000 0.162362
vt 0.000000 0.162362
vt 0.000000 0.162362
vt 0.000000 0.162362
vt 0.000000 0.277090
vt 0.000000 0.277090
vt 0.000000 0.277090
vt 0.000000 0.277090
vt 0.000000 0.277090
vt 0.000000 0.277090
vt 0.000000 0.277090
vt 0.000000 0.277090
vt 0.000000 0.277090
vt 0.000000 0.277090
s 0
usemtl Pintura_coche
f 1/1/1 2/2/1 7/7/1 4/4/1
f 3/3/2 10/10/2 2/2/2 1/1/2
f 1/1/3 4/4/3 6/6/3 3/3/3
f 4/4/4 7/7/4 8/8/4 5/5/4
f 4/4/5 5/5/5 48/48/5 6/6/5
f 2/2/6 10/10/6 9/9/6 7/7/6
f 7/7/7 9/9/7 11/11/7 8/8/7
f 10/10/8 13/13/8 12/12/8 9/9/8
f 9/9/9 12/12/9 14/14/9 11/11/9
f 13/13/10 16/16/10 15/15/10 12/12/10
f 12/12/11 15/15/11 17/17/11 14/14/11
f 82/82/12 19/19/12 18/18/12 73/73/12
f 73/73/13 18/18/13 20/20/13 81/81/13
f 19/19/14 22/22/14 21/21/14 18/18/14
f 18/18/15 21/21/15 23/23/15 20/20/15
f 24/24/16 21/21/16 22/22/16 25/25/16
f 26/26/17 23/23/17 21/21/17 24/24/17
f 28/28/18 27/27/18 24/24/18 25/25/18
f 27/27/19 29/29/19 26/26/19 24/24/19
f 80/80/20 74/74/20 27/27/20 28/28/20
f 74/74/21 79/79/21 29/29/21 27/27/21
f 34/34/22 33/33/22 30/30/22 31/31/22
f 33/33/23 35/35/23 32/32/23 30/30/23
f 3/3/24 6/6/24 33/33/24 34/34/24
usemtl Manillar
f 33/33/25 36/36/25 37/37/25 35/35/25
f 6/6/26 38/38/26 36/36/26 33/33/26
f 36/36/25 39/39/25 46/46/25 37/37/25
f 38/38/27 41/41/27 40/40/27 36/36/27
f 36/36/28 40/40/28 42/42/28 39/39/28
f 41/41/26 43/43/26 42/42/26 40/40/26
f 39/39/29 42/42/29 43/43/29 44/44/29
f 44/44/30 43/43/30 41/41/30 38/38/30
f 47/47/31 45/45/31 44/44/31 38/38/31
f 44/44/32 45/45/32 46/46/32 39/39/32
f 37/37/33 46/46/33 45/45/33 47/47/33
f 48/48/31 47/47/31 38/38/31 6/6/31
f 35/35/33 37/37/33 47/47/33 48/48/33
usemtl Pintura_coche
f 48/48/34 49/49/34 51/51/34 35/35/34
f 5/5/35 50/50/35 49/49/35 48/48/35
f 50/50/36 53/53/36 52/52/36 49/49/36
f 49/49/37 52/52/37 54/54/37 51/51/37
f 53/53/38 56/56/38 55/55/38 52/52/38
f 52/52/39 55/55/39 57/57/39 54/54/39
f 59/59/40 58/58/40 55/55/40 56/56/40
f 58/58/41 60/60/41 57/57/41 55/55/41
f 8/8/42 11/11/42 58/58/42 59/59/42
f 11/11/43 14/14/43 60/60/43 58/58/43
f 60/60/44 61/61/44 63/63/44 57/57/44
f 14/14/45 17/17/45 61/61/45 60/60/45
f 75/75/46 62/62/46 64/64/46 76/76/46
f 81/81/47 20/20/47 62/62/47 75/75/47
f 77/77/48 76/76/48 64/64/48 67/67/48
f 54/54/49 57/57/49 63/63/49 65/65/49
f 78/78/50 77/77/50 67/67/50 68/68/50
f 51/51/51 54/54/51 65/65/51 66/66/51
f 68/68/52 67/67/52 69/69/52 70/70/52
f 67/67/53 64/64/53 71/71/53 69/69/53
f 69/69/54 71/71/54 72/72/54 70/70/54
f 62/62/55 72/72/55 71/71/55 64/64/55
f 20/20/56 23/23/56 72/72/56 62/62/56
f 70/70/57 72/72/57 23/23/57 26/26/57
f 29/29/58 68/68/58 70/70/58 26/26/58
f 79/79/59 78/78/59 68/68/59 29/29/59
f 35/35/60 51/51/60 66/66/60 32/32/60
f 5/5/61 8/8/61 59/59/61 50/50/61
f 50/50/62 59/59/62 56/56/62 53/53/62
f 31/31/63 16/16/63 13/13/63 34/34/63
f 34/34/64 13/13/64 10/10/64 3/3/64
f 80/80/65 82/82/65 16/16/65 31/31/65
f 25/25/66 22/22/66 19/19/66 28/28/66
f 28/28/67 19/19/67 82/82/67 80/80/67
usemtl Vinilo
f 32/32/68 66/66/68 78/78/68 79/79/68
f 66/66/69 65/65/69 77/77/69 78/78/69
usemtl Pintura_coche
f 65/65/70 63/63/70 76/76/70 77/77/70
f 17/17/71 81/81/71 75/75/71 61/61/71
f 61/61/72 75/75/72 76/76/72 63/63/72
usemtl Vinilo
f 30/30/73 32/32/73 79/79/73 74/74/73
f 31/31/74 30/30/74 74/74/74 80/80/74
usemtl Pintura_coche
f 15/15/75 73/73/75 81/81/75 17/17/75
f 16/16/76 82/82/76 73/73/76 15/15/76
