# Blender 3.1.0
# www.blender.org
mtllib Puerta Drch.mtl
o Puerta Drch
v -0.957078 0.901166 -0.083947
v -0.702055 0.877265 0.368132
v -0.971593 0.714069 -0.053734
v -0.726913 0.631732 0.382088
v -0.952026 0.579155 -0.034980
v -0.720041 0.581545 0.378230
v -0.912772 0.437297 0.014658
v -0.712729 0.422001 0.370973
v -0.537088 0.851786 0.673884
v -0.553815 0.652313 0.690408
v -0.547246 0.567378 0.686010
v -0.538861 0.421333 0.680664
v -0.914201 0.894721 -0.108849
v -0.658877 0.871175 0.343666
v -0.928181 0.711898 -0.078445
v -0.683308 0.631596 0.357620
v -0.908447 0.583051 -0.059181
v -0.676543 0.585719 0.353928
v -0.869245 0.440593 -0.009724
v -0.669195 0.425270 0.346598
v -0.493592 0.846078 0.649893
v -0.510134 0.652184 0.666078
v -0.503819 0.571869 0.661640
v -0.495321 0.424575 0.656297
v -0.718627 0.768565 0.377436
v -0.710341 0.798539 0.372784
v -0.961916 0.814426 -0.073876
v -0.966754 0.791586 -0.063805
v -0.548239 0.770479 0.684900
v -0.542663 0.794831 0.679392
v -0.675165 0.767788 0.352969
v -0.667021 0.797036 0.348317
v -0.918861 0.812588 -0.098714
v -0.923521 0.790269 -0.088580
v -0.504620 0.769751 0.660683
v -0.499106 0.793421 0.655288
v -0.883254 0.898378 0.047294
v -0.868137 0.890411 0.073499
v -0.905841 0.704466 0.063383
v -0.891581 0.677020 0.088783
v -0.897008 0.579434 0.063017
v -0.883488 0.580231 0.087100
v -0.883653 0.435513 0.066525
v -0.871994 0.430414 0.087291
v -0.840075 0.891975 0.022920
v -0.824928 0.884126 0.049143
v -0.862301 0.702532 0.038887
v -0.848019 0.675765 0.064295
v -0.853526 0.583362 0.038649
v -0.840016 0.584251 0.062728
v -0.840144 0.438806 0.042109
v -0.828485 0.433698 0.062875
v -0.832625 0.805590 0.054194
v -0.847484 0.810774 0.028242
v -0.840322 0.780153 0.059244
v -0.854892 0.787647 0.033565
v -0.890783 0.812573 0.052657
v -0.875951 0.807278 0.078594
v -0.898312 0.788901 0.058020
v -0.883766 0.781227 0.083688
v -0.898568 0.816094 0.057974
v -0.883736 0.810798 0.083910
v -0.906097 0.792421 0.063337
v -0.891551 0.784748 0.089005
v -0.904248 0.818663 0.061853
v -0.889417 0.813367 0.087789
v -0.911777 0.794990 0.067216
v -0.897231 0.787316 0.092884
v -0.950252 0.791769 -0.025917
v -0.942723 0.815442 -0.031280
v -0.955932 0.794338 -0.022038
v -0.948403 0.818011 -0.027401
v -0.723477 0.606639 0.380159
v -0.961810 0.646612 -0.044357
v -0.550530 0.609846 0.688209
v -0.679926 0.608658 0.355774
v -0.918314 0.647474 -0.068813
v -0.506976 0.612027 0.663859
v -0.857914 0.642947 0.038768
v -0.844017 0.630008 0.063511
v -0.901425 0.641950 0.063200
v -0.887534 0.628626 0.087941
vn -0.8659 0.0778 0.4941
vn -0.8686 -0.1067 0.4839
vn -0.8705 -0.0641 0.4879
vn -0.8724 0.0667 0.4842
vn -0.8708 -0.0648 0.4873
vn -0.8670 -0.1159 0.4847
vn 0.8660 -0.0769 -0.4940
vn 0.8681 0.1118 -0.4836
vn 0.8705 0.0641 -0.4879
vn 0.8724 -0.0661 -0.4842
vn 0.8708 0.0649 -0.4873
vn 0.8665 0.1210 -0.4843
vn 0.1266 0.9916 -0.0274
vn -0.5049 -0.0745 -0.8599
vn -0.4852 -0.1951 -0.8524
vn -0.4210 -0.3999 -0.8141
vn 0.0428 -0.9974 -0.0584
vn 0.1387 0.9903 0.0070
vn 0.0558 -0.9979 -0.0335
vn 0.4861 0.0175 0.8737
vn 0.4891 -0.0036 0.8722
vn 0.4892 -0.0085 0.8721
vn 0.4856 0.0377 0.8734
vn 0.4846 0.0857 0.8705
vn -0.4968 -0.0817 -0.8640
vn -0.4874 -0.2691 -0.8306
vn 0.8684 -0.1314 -0.4780
vn 0.8345 -0.3028 -0.4603
vn 0.8630 -0.1207 -0.4906
vn 0.8203 -0.3215 -0.4730
vn -0.8694 0.1246 0.4782
vn -0.8355 0.2994 0.4608
vn -0.8636 0.1155 0.4908
vn -0.8212 0.3184 0.4736
vn -0.8078 0.3677 0.4607
vn 0.5619 -0.0068 0.8272
vn -0.8659 0.1058 0.4889
vn -0.8497 0.1091 0.5158
vn 0.8068 -0.3707 -0.4601
vn 0.7729 -0.3530 -0.5272
vn 0.8655 -0.1102 -0.4887
vn 0.8487 -0.1138 -0.5165
vn 0.0445 -0.9975 -0.0546
vn -0.0462 -0.9758 -0.2138
vn 0.1210 0.9915 -0.0472
vn 0.2297 0.9605 0.1571
vn 0.8702 0.0695 -0.4878
vn 0.8727 0.0678 -0.4835
vn 0.8708 0.0627 -0.4876
vn 0.8773 0.0739 -0.4742
vn 0.8642 -0.1102 -0.4909
vn 0.8377 -0.0962 -0.5376
vn -0.8702 -0.0695 0.4878
vn -0.8727 -0.0677 0.4835
vn -0.8709 -0.0607 0.4877
vn -0.8775 -0.0713 0.4743
vn -0.8639 0.1128 0.4910
vn -0.8365 0.0979 0.5392
vn -0.4276 -0.9035 -0.0278
vn 0.3913 0.9196 -0.0360
vn -0.5660 -0.0067 -0.8244
vn -0.7736 0.3498 0.5283
vn -0.8374 0.3596 0.4116
vn 0.8374 -0.3596 -0.4116
vn -0.3129 -0.9359 0.1616
vn 0.3129 0.9359 -0.1616
vn -0.8936 -0.0723 0.4429
vn -0.8720 -0.0609 0.4857
vn 0.8935 0.0749 -0.4427
vn 0.8719 0.0630 -0.4856
vn 0.4874 -0.0087 0.8731
vn -0.4704 -0.1942 -0.8608
vn 0.8636 0.1210 -0.4895
vn 0.8718 0.1120 -0.4770
vn -0.8642 -0.1159 0.4896
vn -0.8722 -0.1068 0.4774
vt 0.000000 0.500000
vt 0.000000 0.500000
vt 0.000000 0.309686
vt 0.000000 0.309686
vt 0.000000 0.244493
vt 0.000000 0.244493
vt 0.000000 0.162362
vt 0.000000 0.162362
vt 0.000000 0.500000
vt 0.000000 0.309686
vt 0.000000 0.244493
vt 0.000000 0.162362
vt 0.000000 0.500000
vt 0.000000 0.500000
vt 0.000000 0.309686
vt 0.000000 0.309686
vt 0.000000 0.244493
vt 0.000000 0.244493
vt 0.000000 0.162362
vt 0.000000 0.162362
vt 0.000000 0.500000
vt 0.000000 0.309686
vt 0.000000 0.244493
vt 0.000000 0.162362
vt 0.000000 0.373124
vt 0.000000 0.436562
vt 0.000000 0.436562
vt 0.000000 0.373124
vt 0.000000 0.373124
vt 0.000000 0.436562
vt 0.000000 0.373124
vt 0.000000 0.436562
vt 0.000000 0.436562
vt 0.000000 0.373124
vt 0.000000 0.373124
vt 0.000000 0.436562
vt 0.000000 0.500000
vt 0.000000 0.500000
vt 0.000000 0.309686
vt 0.000000 0.309686
vt 0.000000 0.244493
vt 0.000000 0.244493
vt 0.000000 0.162362
vt 0.000000 0.162362
vt 0.000000 0.500000
vt 0.000000 0.500000
vt 0.000000 0.309686
vt 0.000000 0.309686
vt 0.000000 0.244493
vt 0.000000 0.244493
vt 0.000000 0.162362
vt 0.000000 0.162362
vt 0.000000 0.436562
vt 0.000000 0.436562
vt 0.000000 0.373124
vt 0.000000 0.373124
vt 0.000000 0.436562
vt 0.000000 0.436562
vt 0.000000 0.373124
vt 0.000000 0.373124
vt 0.000000 0.436562
vt 0.000000 0.436562
vt 0.000000 0.373124
vt 0.000000 0.373124
vt 0.000000 0.436562
vt 0.000000 0.436562
vt 0.000000 0.373124
vt 0.000000 0.373124
vt 0.000000 0.373124
vt 0.000000 0.436562
vt 0.000000 0.373124
vt 0.000000 0.436562
vt 0.000000 0.277090
vt 0.000000 0.277090
vt 0.000000 0.277090
vt 0.000000 0.277090
vt 0.000000 0.277090
vt 0.000000 0.277090
vt 0.000000 0.277090
vt 0.000000 0.277090
vt 0.000000 0.277090
vt 0.000000 0.277090
s 0
usemtl Pintura_coche
f 60/60/1 40/40/1 4/4/1 25/25/1
f 82/82/2 42/42/2 6/6/2 73/73/2
f 42/42/3 44/44/3 8/8/3 6/6/3
f 25/25/4 4/4/4 10/10/4 29/29/4
f 6/6/5 8/8/5 12/12/5 11/11/5
f 73/73/6 6/6/6 11/11/6 75/75/6
f 55/55/7 31/31/7 16/16/7 48/48/7
f 80/80/8 76/76/8 18/18/8 50/50/8
f 50/50/9 18/18/9 20/20/9 52/52/9
f 31/31/10 35/35/10 22/22/10 16/16/10
f 18/18/11 23/23/11 24/24/11 20/20/11
f 76/76/12 78/78/12 23/23/12 18/18/12
f 38/38/13 2/2/13 14/14/13 46/46/13
f 27/27/14 1/1/14 13/13/14 33/33/14
f 74/74/15 3/3/15 15/15/15 77/77/15
f 7/7/16 5/5/16 17/17/16 19/19/16
f 43/43/17 7/7/17 19/19/17 51/51/17
f 2/2/18 9/9/18 21/21/18 14/14/18
f 12/12/19 8/8/19 20/20/19 24/24/19
f 29/29/20 10/10/20 22/22/20 35/35/20
f 11/11/21 12/12/21 24/24/21 23/23/21
f 75/75/22 11/11/22 23/23/22 78/78/22
f 9/9/23 30/30/23 36/36/23 21/21/23
f 30/30/24 29/29/24 35/35/24 36/36/24
f 3/3/25 28/28/25 34/34/25 15/15/25
f 28/28/26 27/27/26 33/33/26 34/34/26
f 14/14/27 21/21/27 36/36/27 32/32/27
f 32/32/28 36/36/28 35/35/28 31/31/28
f 46/46/29 14/14/29 32/32/29 53/53/29
f 53/53/30 32/32/30 31/31/30 55/55/30
f 2/2/31 26/26/31 30/30/31 9/9/31
f 26/26/32 25/25/32 29/29/32 30/30/32
f 38/38/33 58/58/33 26/26/33 2/2/33
f 58/58/34 60/60/34 25/25/34 26/26/34
f 27/27/35 28/28/35 59/59/35 57/57/35
usemtl Manillar
f 60/60/36 58/58/36 62/62/36 64/64/36
usemtl Pintura_coche
f 1/1/37 27/27/37 57/57/37 37/37/37
f 37/37/38 57/57/38 58/58/38 38/38/38
f 33/33/39 54/54/39 56/56/39 34/34/39
f 54/54/40 53/53/40 55/55/40 56/56/40
f 13/13/41 45/45/41 54/54/41 33/33/41
f 45/45/42 46/46/42 53/53/42 54/54/42
f 8/8/43 44/44/43 52/52/43 20/20/43
f 44/44/44 43/43/44 51/51/44 52/52/44
f 1/1/45 37/37/45 45/45/45 13/13/45
f 37/37/46 38/38/46 46/46/46 45/45/46
f 17/17/47 49/49/47 51/51/47 19/19/47
f 49/49/48 50/50/48 52/52/48 51/51/48
f 77/77/49 79/79/49 49/49/49 17/17/49
f 79/79/50 80/80/50 50/50/50 49/49/50
f 34/34/51 56/56/51 47/47/51 15/15/51
f 56/56/52 55/55/52 48/48/52 47/47/52
f 5/5/53 7/7/53 43/43/53 41/41/53
f 41/41/54 43/43/54 44/44/54 42/42/54
f 74/74/55 5/5/55 41/41/55 81/81/55
f 81/81/56 41/41/56 42/42/56 82/82/56
f 28/28/57 3/3/57 39/39/57 59/59/57
f 59/59/58 39/39/58 40/40/58 60/60/58
usemtl Manillar
f 63/63/59 64/64/59 68/68/59 67/67/59
f 59/59/59 60/60/59 64/64/59 63/63/59
f 58/58/60 57/57/60 61/61/60 62/62/60
f 57/57/61 59/59/61 63/63/61 61/61/61
f 65/65/62 67/67/62 68/68/62 66/66/62
f 67/67/63 65/65/63 72/72/63 71/71/63
f 62/62/60 61/61/60 65/65/60 66/66/60
f 64/64/36 62/62/36 66/66/36 68/68/36
f 70/70/61 69/69/61 71/71/61 72/72/61
f 61/61/64 63/63/64 69/69/64 70/70/64
f 63/63/65 67/67/65 71/71/65 69/69/65
f 65/65/66 61/61/66 70/70/66 72/72/66
usemtl Vinilo
f 39/39/67 81/81/67 82/82/67 40/40/67
f 3/3/68 74/74/68 81/81/68 39/39/68
usemtl Pintura_coche
f 47/47/69 48/48/69 80/80/69 79/79/69
f 15/15/70 47/47/70 79/79/70 77/77/70
f 10/10/71 75/75/71 78/78/71 22/22/71
f 5/5/72 74/74/72 77/77/72 17/17/72
f 16/16/73 22/22/73 78/78/73 76/76/73
f 48/48/74 16/16/74 76/76/74 80/80/74
usemtl Vinilo
f 4/4/75 73/73/75 75/75/75 10/10/75
f 40/40/76 82/82/76 73/73/76 4/4/76
