# Blender v2.82 (sub 7) OBJ File: 'cars_02.blend'
# www.blender.org
mtllib roadTile.mtl
o roadTile_Cube.002
v 1.999999 -0.116757 -2.000001
v 1.999999 0.014595 -2.000001
v 2.000000 0.014595 -0.055529
v 0.000000 0.014595 -0.055528
v 1.666667 0.014595 -0.055529
v 1.333333 0.014595 -0.055528
v 1.000000 0.014595 -0.055528
v 0.666667 0.014595 -0.055528
v 0.333333 0.014595 -0.055528
v 2.000001 -0.116757 1.999999
v 2.000001 0.014595 1.999999
v 2.000000 0.014595 0.055527
v 0.000000 0.014595 0.055528
v 1.666667 0.014595 0.055527
v 1.333333 0.014595 0.055527
v 1.000000 0.014595 0.055527
v 0.666667 0.014595 0.055527
v 0.333333 0.014595 0.055528
v -2.000001 -0.116757 -1.999999
v -2.000001 0.014595 -1.999999
v -2.000000 0.014595 -0.055527
v -0.333333 0.014595 -0.055528
v -0.666667 0.014595 -0.055527
v -1.000000 0.014595 -0.055527
v -1.333333 0.014595 -0.055527
v -1.666667 0.014595 -0.055527
v -1.999999 -0.116757 2.000001
v -1.999999 0.014595 2.000001
v -2.000000 0.014595 0.055529
v -0.333333 0.014595 0.055528
v -0.666667 0.014595 0.055528
v -1.000000 0.014595 0.055528
v -1.333333 0.014595 0.055528
v -1.666667 0.014595 0.055529
vt 0.625000 0.916667
vt 0.625000 1.000000
vt 0.375000 1.000000
vt 0.375000 1.000000
vt 0.625000 1.000000
vt 0.625000 0.916667
vt 0.375000 0.000000
vt 0.375000 0.250000
vt 0.625000 0.250000
vt 0.625000 0.000000
vt 0.375000 0.000000
vt 0.625000 0.000000
vt 0.625000 0.250000
vt 0.375000 0.250000
vt 0.625000 0.333333
vt 0.625000 0.333333
vt 0.791667 0.625000
vt 0.791667 0.625000
vt 0.791667 0.666667
vt 0.791667 0.666667
vt 0.791667 0.708333
vt 0.791667 0.708333
vt 0.791667 0.750000
vt 0.791667 0.750000
vt 0.791667 0.541667
vt 0.791667 0.541667
vt 0.791667 0.583333
vt 0.791667 0.583333
vt 0.791667 0.708333
vt 0.791667 0.708333
vt 0.791667 0.500000
vt 0.791667 0.750000
vt 0.791667 0.625000
vt 0.791667 0.625000
vt 0.791667 0.666667
vt 0.791667 0.666667
vt 0.791667 0.541667
vt 0.791667 0.583333
vt 0.791667 0.583333
vt 0.791667 0.541667
vt 0.791667 0.500000
vt 0.875000 0.750000
vt 0.875000 0.500000
vt 0.791667 0.500000
vt 0.875000 0.500000
vt 0.875000 0.750000
vt 0.791667 0.750000
vt 0.791667 0.500000
vn -1.0000 0.0000 0.0000
vn 0.0000 0.0000 1.0000
vn -0.0000 0.0000 -1.0000
vn 1.0000 0.0000 -0.0000
vn 0.0000 1.0000 0.0000
usemtl black
s off
f 21/1/1 20/2/1 19/3/1 27/4/1 28/5/1 29/6/1
f 27/7/2 10/8/2 11/9/2 28/10/2
f 19/11/3 20/12/3 2/13/3 1/14/3
f 3/15/4 12/16/4 11/9/4 10/8/4 1/14/4 2/13/4
usemtl whiteLamps
f 32/17/5 24/18/5 25/19/5 33/20/5
f 34/21/5 26/22/5 21/23/5 29/24/5
f 30/25/5 22/26/5 23/27/5 31/28/5
f 18/29/5 9/30/5 4/31/5 13/32/5
f 16/33/5 7/34/5 8/35/5 17/36/5
f 5/37/5 6/38/5 15/39/5 14/40/5
usemtl asfalt
f 13/41/5 30/25/5 31/28/5 32/17/5 33/20/5 34/21/5 29/24/5 28/42/5 11/43/5 12/44/5 14/40/5 15/39/5 16/33/5 17/36/5 18/29/5
f 2/45/5 20/46/5 21/23/5 26/22/5 25/19/5 24/18/5 23/27/5 22/26/5 4/47/5 9/30/5 8/35/5 7/34/5 6/38/5 5/37/5 3/48/5
f 33/20/5 25/19/5 26/22/5 34/21/5
f 31/28/5 23/27/5 24/18/5 32/17/5
f 13/32/5 4/31/5 22/26/5 30/25/5
f 17/36/5 8/35/5 9/30/5 18/29/5
f 6/38/5 7/34/5 16/33/5 15/39/5
f 3/48/5 5/37/5 14/40/5 12/44/5
